<svg width="132" height="130" viewBox="0 0 132 130" fill="none" xmlns="http://www.w3.org/2000/svg">
<path fill-rule="evenodd" clip-rule="evenodd" d="M69.3921 53.679C69.3921 53.679 86.304 51.0018 91.9452 36.5286C100.309 36.1588 106.333 41.5958 106.333 41.5958C106.333 41.5958 95.8857 64.8821 69.3921 53.679ZM69.3921 51.3404C69.3921 51.3404 80.9477 40.8835 77.169 23.6657C79.8249 21.3596 87.7023 18.8364 91.5563 19.3781C92.2891 22.1946 95.8857 44.8575 69.3921 51.3404ZM68.2256 49.3915C68.2256 49.3915 70.9306 32.6627 56.9486 22.8862C59.276 17.1214 61.6129 14.0436 65.5033 11.1926C83.8144 24.3871 72.6803 46.4398 68.2256 49.3915V49.3915ZM66.2813 48.2222C66.2813 48.2222 58.8553 33.7183 40.6176 34.1898C39.076 30.1368 39.0034 21.1221 40.2287 19.3779C61.8388 20.2125 66.6697 39.5623 66.2813 48.2222V48.2222ZM65.8926 51.7301C65.8926 51.7301 39.6812 67.8306 25.0638 41.206C49.0714 26.8404 63.8844 47.7454 65.8926 51.7301ZM66.2813 57.577C66.2813 57.577 79.9276 75.0025 108.277 57.1871C102.896 58.1932 98.1261 58.6237 93.5021 59.5257C77.6621 62.2397 66.2813 57.577 66.2813 57.577V57.577ZM23.1195 57.1871C23.1195 57.1871 50.7949 74.775 65.5037 57.1871C60.8857 59.789 55.174 60.6341 46.8391 60.6952C36.5649 60.2518 24.7162 57.4538 23.1195 57.1871Z" stroke="white" stroke-width="3"/>
<path fill-rule="evenodd" clip-rule="evenodd" d="M11.2209 76.7947V76.5723H52.0411V76.7947H11.2209Z" fill="black" stroke="white" stroke-width="2.51"/>
<path fill-rule="evenodd" clip-rule="evenodd" d="M81.8622 76.6279V76.4055H122.682V76.6279H81.8622Z" fill="white" stroke="white" stroke-width="2.51"/>
<path fill-rule="evenodd" clip-rule="evenodd" d="M60.6241 75.1341L63.7334 78.1539L63.0197 82.4099L66.8062 80.3846L70.6533 82.4099L69.9267 78.1179L72.9882 75.1341L68.7176 74.5152L66.8184 70.6235L64.9189 74.5152L60.6241 75.1341Z" fill="white"/>
</svg>
