<svg width="145" height="109" viewBox="0 0 145 109" fill="none" xmlns="http://www.w3.org/2000/svg">
<path fill-rule="evenodd" clip-rule="evenodd" d="M76.2261 52.4571C76.2261 52.4571 94.8037 49.4914 101 33.459C110.188 33.0493 116.805 39.0722 116.805 39.0722C116.805 39.0722 105.329 64.867 76.2261 52.4571ZM76.2261 49.8666C76.2261 49.8666 88.9198 38.2831 84.7689 19.2104C87.6865 16.6558 96.3397 13.8608 100.573 14.461C101.378 17.5809 105.329 42.6852 76.2261 49.8666ZM74.9447 47.7076C74.9447 47.7076 77.9161 29.1767 62.5571 18.347C65.1137 11.9612 67.6809 8.55177 71.9543 5.39368C92.0689 20.0095 79.8382 44.4379 74.9447 47.7076ZM72.809 46.4123C72.809 46.4123 64.6517 30.346 44.6178 30.8682C42.9244 26.3787 42.8447 16.3928 44.1906 14.4607C67.9289 15.3852 73.2357 36.8196 72.809 46.4123ZM72.382 50.2981C72.382 50.2981 43.5892 68.1333 27.5322 38.6403C53.9042 22.7272 70.1761 45.8843 72.382 50.2981ZM72.809 56.7749C72.809 56.7749 87.7993 76.0777 118.941 56.3432C113.03 57.4576 107.79 57.9345 102.711 58.9337C85.3107 61.94 72.809 56.7749 72.809 56.7749ZM25.3964 56.3432C25.3964 56.3432 55.7974 75.8257 71.9548 56.3432C66.882 59.2253 60.6078 60.1614 51.4521 60.2292C40.166 59.7379 27.1503 56.6385 25.3964 56.3432Z" stroke="white" stroke-width="3"/>
<path fill-rule="evenodd" clip-rule="evenodd" d="M12.326 78.0631V77.8167H57.1663V78.0631H12.326Z" fill="black" stroke="white" stroke-width="2.51"/>
<path fill-rule="evenodd" clip-rule="evenodd" d="M89.9244 77.8781V77.6318H134.765V77.8781H89.9244Z" fill="black" stroke="white" stroke-width="2.51"/>
<path fill-rule="evenodd" clip-rule="evenodd" d="M66.5947 76.2236L70.0101 79.5686L69.2262 84.2832L73.3856 82.0397L77.6116 84.2832L76.8135 79.5288L80.1765 76.2236L75.4853 75.538L73.399 71.2271L71.3125 75.538L66.5947 76.2236Z" fill="white"/>
<path fill-rule="evenodd" clip-rule="evenodd" d="M52.9294 91.2895V95.5729H46.7707V91.2895H46.0995V100.601H46.7707V96.1716H52.9294V100.601H53.6006V91.2895H52.9294ZM59.2855 100.654C59.9004 100.663 60.5066 100.507 61.0423 100.202C61.5592 99.9062 61.9851 99.4714 62.2728 98.9459C62.5666 98.3867 62.7202 97.7631 62.7202 97.1301C62.7202 96.4969 62.5666 95.8735 62.2728 95.3143C61.9848 94.789 61.5591 94.3542 61.0423 94.0579C60.5033 93.7612 59.8993 93.6057 59.2855 93.6057C58.6717 93.6057 58.0677 93.7612 57.5287 94.0579C57.0118 94.3541 56.5861 94.7889 56.2983 95.3143C56.0045 95.8735 55.8509 96.4969 55.8509 97.1301C55.8509 97.7631 56.0045 98.3867 56.2983 98.9459C56.5859 99.4714 57.0117 99.9062 57.5287 100.202C58.0644 100.507 58.6706 100.663 59.2855 100.654ZM59.2855 100.056C58.7892 100.064 58.3001 99.9352 57.8709 99.6834C57.4541 99.4353 57.1127 99.0764 56.8839 98.6458C56.6459 98.1765 56.5219 97.6567 56.5219 97.1294C56.5219 96.602 56.6459 96.0822 56.8839 95.6128C57.113 95.1824 57.4543 94.8235 57.8709 94.5753C58.3032 94.3311 58.7902 94.2028 59.2855 94.2028C59.7807 94.2028 60.2678 94.3311 60.7002 94.5753C61.1167 94.8235 61.458 95.1824 61.6872 95.6128C61.925 96.0822 62.0491 96.602 62.0491 97.1294C62.0491 97.6567 61.925 98.1765 61.6872 98.6458C61.4582 99.0764 61.1169 99.4353 60.7002 99.6834C60.2709 99.9352 59.7818 100.064 59.2855 100.056ZM67.892 99.6967C67.5987 99.9586 67.217 100.097 66.826 100.082C66.6513 100.095 66.4759 100.071 66.3115 100.01C66.147 99.9491 65.9971 99.8537 65.8719 99.73C65.6384 99.4404 65.5231 99.0716 65.5495 98.699V94.2294H67.734V93.6574H65.5495V92.1414H64.8915V93.6579H63.6294V94.2299H64.8928V98.7655C64.8779 99.0184 64.9134 99.2717 64.9971 99.5105C65.0808 99.7493 65.211 99.9686 65.3802 100.156C65.5648 100.329 65.7825 100.463 66.0201 100.549C66.2577 100.635 66.5101 100.671 66.7619 100.654C67.0279 100.655 67.2923 100.613 67.5449 100.528C67.7774 100.454 67.9909 100.329 68.17 100.162L67.892 99.6967ZM75.564 97.1026C75.5744 96.4729 75.4273 95.8506 75.1363 95.2936C74.8665 94.7781 74.4612 94.3476 73.9651 94.0498C73.4519 93.7564 72.8723 93.6028 72.2828 93.604C71.6931 93.6051 71.1141 93.761 70.6021 94.0565C70.1024 94.3575 69.6948 94.7923 69.4243 95.3128C69.1336 95.8723 68.9865 96.4967 68.9966 97.1286C68.9851 97.7662 69.1418 98.3953 69.4506 98.9515C69.7471 99.4777 70.1822 99.9106 70.7074 100.202C71.2123 100.469 71.7688 100.622 72.3382 100.65C72.9075 100.677 73.4759 100.579 74.0039 100.362C74.4402 100.178 74.8262 99.8908 75.129 99.5239L74.7474 99.085C74.4942 99.4033 74.1662 99.6526 73.7933 99.81C73.3999 99.9765 72.9769 100.06 72.5505 100.056C72.0408 100.065 71.5368 99.9465 71.0832 99.7115C70.6561 99.4881 70.2986 99.1497 70.0501 98.7337C69.791 98.2972 69.6502 97.7994 69.6422 97.2904H75.5509L75.564 97.1026ZM72.2873 94.1895C72.7359 94.181 73.1788 94.2922 73.5716 94.5116C73.9643 94.7311 74.2929 95.0513 74.5244 95.4399C74.765 95.8425 74.9008 96.3001 74.9192 96.7701H69.6553C69.6826 96.2986 69.8202 95.8406 70.0567 95.4333C70.279 95.0487 70.5993 94.7317 70.9845 94.5154C71.3835 94.2948 71.8324 94.1825 72.2873 94.1895ZM77.6035 100.601H78.2615V90.7308H77.6035V100.601ZM86.7229 95.7991C87.1683 95.6595 87.5609 95.3856 87.8481 95.0142C88.1321 94.6264 88.2781 94.1529 88.2624 93.6707C88.2788 93.3299 88.2111 92.9902 88.0652 92.6824C87.9193 92.3748 87.6998 92.1086 87.4267 91.9081C86.8696 91.4957 86.091 91.2895 85.0909 91.2895H81.2488V100.601H85.3546C86.4775 100.601 87.3242 100.388 87.8944 99.9628C88.1749 99.754 88.4 99.4783 88.5492 99.1602C88.6985 98.842 88.7673 98.4914 88.7498 98.1398C88.7745 97.5737 88.5891 97.0185 88.23 96.5835C87.8307 96.1561 87.2992 95.8792 86.7232 95.7986L86.7229 95.7991ZM85.0658 91.8749C85.8729 91.8749 86.4936 92.0323 86.9279 92.3471C87.1314 92.5142 87.2954 92.7251 87.4081 92.9645C87.5208 93.2038 87.5793 93.4655 87.5793 93.7306C87.5793 93.9956 87.5208 94.2573 87.4081 94.4966C87.2954 94.736 87.1314 94.9468 86.9279 95.114C86.4936 95.4289 85.8729 95.5863 85.0658 95.5862H81.9197V91.8749H85.0648H85.0658ZM85.3553 100.016H81.9197V96.1716H85.3543C86.2492 96.1716 86.9269 96.3267 87.3875 96.6371C87.6031 96.8115 87.7772 97.0327 87.8967 97.2842C88.0164 97.5359 88.0785 97.8114 88.0785 98.0905C88.0785 98.3696 88.0164 98.6452 87.8967 98.8968C87.7772 99.1484 87.6031 99.3696 87.3875 99.5439C86.9269 99.8589 86.2492 100.016 85.3543 100.016L85.3553 100.016ZM91.5667 95.1738V93.6574H90.935V100.601H91.593V96.983C91.593 96.1231 91.8079 95.4513 92.2378 94.9677C92.4658 94.7222 92.7441 94.5302 93.0532 94.405C93.3624 94.2797 93.6949 94.2243 94.0275 94.2427L94.1854 94.256V93.6041C93.6147 93.5862 93.0501 93.7265 92.5527 94.0099C92.1068 94.2786 91.7602 94.6873 91.5657 95.1738H91.5667ZM98.3171 93.6041C97.8017 93.6023 97.2897 93.69 96.8037 93.8636C96.3483 94.0206 95.9279 94.267 95.5667 94.5886L95.8957 95.0674C96.2057 94.7888 96.5652 94.5721 96.9551 94.429C97.3734 94.269 97.8172 94.1878 98.2645 94.1895C98.9305 94.1895 99.4371 94.358 99.7844 94.695C99.9669 94.8916 100.107 95.1242 100.197 95.3783C100.286 95.6324 100.323 95.9025 100.304 96.1716V96.7303H97.9486C97.0538 96.7303 96.4024 96.9099 95.9944 97.269C95.7973 97.4498 95.6407 97.6711 95.5353 97.9181C95.4298 98.1651 95.3777 98.432 95.3827 98.7011C95.3877 98.9701 95.4496 99.235 95.5642 99.4777C95.6787 99.7206 95.8433 99.9358 96.0471 100.109C96.5691 100.498 97.2089 100.691 97.8565 100.654C98.3808 100.669 98.9008 100.553 99.3699 100.315C99.7772 100.103 100.112 99.7713 100.331 99.3641V100.601H100.962V96.1982C100.962 95.3467 100.734 94.7016 100.278 94.2627C99.8217 93.8237 99.1681 93.6041 98.3171 93.6041ZM97.9486 100.109C97.449 100.14 96.9536 100.002 96.5405 99.7166C96.378 99.5918 96.2479 99.4292 96.1609 99.2425C96.074 99.056 96.0329 98.8509 96.0412 98.6448C96.0324 98.4501 96.069 98.256 96.1478 98.0782C96.2267 97.9003 96.3456 97.7435 96.4952 97.6205C96.7979 97.3725 97.287 97.2484 97.9625 97.248H100.305V98.5517C100.13 99.0227 99.8151 99.4272 99.4033 99.7095C98.9685 99.9857 98.4622 100.125 97.9491 100.109L97.9486 100.109Z" fill="white"/>
</svg>
